<svg preserveAspectRatio="none" viewBox="0 0 3388 1814" version="1.1" xmlns="http://www.w3.org/2000/svg" xmlns:xlink="http://www.w3.org/1999/xlink">
    <title>Wave</title>
    <g id="Page-1" stroke="none" fill="none" fill-rule="evenodd">
        <path d="M3387.5,719.582 L3387.5,1814.5 L982.944,1814.499 L986.752804,1814.36848 C1311.67149,1801.80355 1643.77036,1673.56679 1856.6129,1390.30282 L1864.16351,1380.12027 C1979.557,1222.42604 2084.79615,1140.75442 2184.41553,1103.00756 C2320.15557,1051.5742 2445.43792,1081.6993 2571.68026,1112.02829 C2711.4825,1145.61495 2852.4589,1179.45263 3010.07592,1103.54969 C3125.14666,1048.13558 3249.10287,934.213984 3387.939,718.904237 L3387.5,719.582 Z M0.5,1231.15894 C15.011882,1383.71564 105.534643,1514.09768 241.433418,1612.732 C390.999912,1721.28625 595.529598,1791.38206 814.096059,1810.25825 C836.833385,1812.22192 859.722538,1813.6313 882.717441,1814.47202 L883.56,1814.499 L0.5,1814.5 Z" id="Path" fill="#FFFFFF"></path>
    </g>
</svg>